<!DOCTYPE svg PUBLIC "-//W3C//DTD SVG 1.1//EN" "http://www.w3.org/Graphics/SVG/1.1/DTD/svg11.dtd">

<!-- Uploaded to: SVG Repo, www.svgrepo.com, Transformed by: SVG Repo Mixer Tools -->strokeWidth
<svg fill="#fcd34d" versionstrokeWidthapa_1" xmlns="http://www.w3.org/2000/svg" xmlns:xlink="http://www.w3.org/1999/xlink" width="800px" height="800px" viewBox="-33.37 -33.37 400.40 400.40" xml:space="preserve" stroke="#fcd34d" strokeWidth="0.00333663">

<g id="SVGRepo_bgCarrier" strokeWidth="0" transform="translate(85.08406500000001,85.08406500000001), scale(0.49)">
strokeWidth
<path transform="translate(-33.37, -33.37), scale(12.5125)" d="M16,31.989099699346458C20.374244151101628,31.609479903000015,22.31139534786199,26.543202490962848,24.33394353062704,22.646098190123734C25.765346337613632,19.888029886547187,25.69695798038813,16.945904519766994,25.413185471118126,13.85150184299312C25.038568412366814,9.766483063875786,26.00916045081933,4.631754009325898,22.4888132643148,2.525840418287938C18.87007490817104,0.3610680583831747,14.373114315344841,2.936003947430615,10.737517556000201,5.072342605948132C7.552883015579667,6.943688173759937,5.107845044133959,9.72759019548767,4.158242855439397,13.297196206441104C3.1601483807410284,17.049087344434973,3.5529474343698864,20.9896387637885,5.6306680309739505,24.26926630578585C8.05691784068283,28.099038081977866,11.48334279080633,32.38107884607263,16,31.989099699346458" fill="#ffffff" strokewidth="0"/>

</g>

<g id="SVGRepo_tracerCarrier" strokeLinecap="round" strokeLinejoin="round" stroke="#CCCCCC" strokeWidth="2.0019780000000003"/>

<g id="SVGRepo_iconCarrier"> <g> <path d="M330.396,282.031L178.487,35.471c-2.504-4.074-6.96-6.555-11.736-6.555c-4.795,0-9.235,2.48-11.751,6.555L2.051,283.712 c-2.624,4.251-2.735,9.602-0.306,13.961c2.441,4.371,7.046,7.073,12.058,7.073h305.881c0.055-0.018,0.114-0.018,0.181,0 c7.62,0,13.799-6.19,13.799-13.799C333.669,287.543,332.438,284.445,330.396,282.031z M157.692,111.062h18.104v109.96h-18.104 V111.062z M175.695,261.243c-2.66,2.498-5.647,3.759-8.956,3.759c-3.303,0-6.285-1.261-8.948-3.759 c-2.651-2.534-3.978-5.579-3.978-9.182c0-3.585,1.261-6.629,3.774-9.157c2.504-2.511,5.554-3.771,9.152-3.771 c3.584,0,6.656,1.261,9.172,3.771c2.504,2.528,3.771,5.572,3.771,9.157C179.683,255.664,178.337,258.708,175.695,261.243z"/> </g> </g>

</svg>